<svg xmlns="http://www.w3.org/2000/svg" width="93.7" height="17.088" viewBox="0 0 93.7 17.088">
  <path id="パス_1" data-name="パス 1" d="M-46.85-6.821a11.814,11.814,0,0,1,.44-3.285,11.544,11.544,0,0,1,1.248-2.845,13.433,13.433,0,0,1,1.885-2.414l1.077.556A12.953,12.953,0,0,0-43.978-12.5a10.943,10.943,0,0,0-1.158,2.657,10.933,10.933,0,0,0-.4,3.025,10.961,10.961,0,0,0,.4,3.016,10.744,10.744,0,0,0,1.158,2.657A13.694,13.694,0,0,0-42.2,1.167l-1.077.556A14.16,14.16,0,0,1-45.162-.7,11.35,11.35,0,0,1-46.41-3.545,11.842,11.842,0,0,1-46.85-6.821Zm6.516-6.39h7.772v1.149h-7.772Zm.736,3.787h7.144v1.149H-39.6Zm4.775-2.657,1.239.269q-.215.628-.422,1.257t-.4,1.095l-1.113-.269q.18-.485.386-1.158T-34.823-12.08Zm-2.226-2.872h1.31v2.459h-1.31Zm2.3,6.965,1.059.449a8.292,8.292,0,0,1-1.176.9,12.847,12.847,0,0,1-1.409.781q-.736.35-1.436.6a5.033,5.033,0,0,0-.368-.4,4.143,4.143,0,0,0-.44-.386q.664-.215,1.373-.512A11.729,11.729,0,0,0-35.8-7.225,5.479,5.479,0,0,0-34.751-7.988Zm-5.223-1.436h1.221v3.877q0,.718-.054,1.562t-.18,1.714a11.42,11.42,0,0,1-.377,1.7A7.156,7.156,0,0,1-40.011.933,1.875,1.875,0,0,0-40.28.646q-.18-.162-.368-.314a2.513,2.513,0,0,0-.314-.224A6.316,6.316,0,0,0-40.3-1.723a14.878,14.878,0,0,0,.26-1.983q.063-1,.063-1.84Zm.969-2.334,1.095-.233A10.967,10.967,0,0,1-37.48-10.8a6.879,6.879,0,0,1,.251,1.086l-1.149.305a8.675,8.675,0,0,0-.224-1.131A8.844,8.844,0,0,0-39.006-11.757Zm4.7,6.211,1.059.431A8.773,8.773,0,0,1-34.5-4.021a13.089,13.089,0,0,1-1.526.951,16.292,16.292,0,0,1-1.616.754,4.151,4.151,0,0,0-.35-.422,2.98,2.98,0,0,0-.422-.386,14.581,14.581,0,0,0,1.508-.655,14.181,14.181,0,0,0,1.454-.835A6.7,6.7,0,0,0-34.3-5.547Zm.574,2.477,1.149.413a7.4,7.4,0,0,1-1.4,1.589A10.212,10.212,0,0,1-35.873.215a14.985,14.985,0,0,1-2.217.951,3.646,3.646,0,0,0-.341-.476,4.3,4.3,0,0,0-.413-.44,12.34,12.34,0,0,0,3-1.346A6.774,6.774,0,0,0-33.728-3.069Zm1.31-11.165H-24.3v1.167h-8.113Zm1.759,6.677v1.741h4.793V-7.557Zm0,2.746v1.777h4.793V-4.811Zm0-5.493V-8.58h4.793V-10.3Zm-1.185-1.059h7.2v9.388h-7.2Zm2.908-2.316,1.418.18q-.2.772-.431,1.544t-.431,1.346l-1.113-.215q.108-.395.215-.906t.206-1.023A9.078,9.078,0,0,0-28.936-13.678ZM-30.228-1.705l1.167.7a8.634,8.634,0,0,1-1.077.933A15.078,15.078,0,0,1-31.449.8a10.087,10.087,0,0,1-1.346.673,4.438,4.438,0,0,0-.422-.44q-.278-.26-.494-.44a11.274,11.274,0,0,0,1.328-.646,10.2,10.2,0,0,0,1.23-.817A7.358,7.358,0,0,0-30.228-1.705Zm2.513.754,1.005-.664q.5.323,1.041.745t1.032.826a6.219,6.219,0,0,1,.8.763l-1.059.736A7.592,7.592,0,0,0-25.66.691q-.476-.422-1.023-.853T-27.715-.951ZM-14.45-8.724a1.888,1.888,0,0,1,.969.251,1.865,1.865,0,0,1,.682.682,1.888,1.888,0,0,1,.251.969,1.9,1.9,0,0,1-.251.96,1.845,1.845,0,0,1-.682.691,1.888,1.888,0,0,1-.969.251,1.9,1.9,0,0,1-.96-.251,1.825,1.825,0,0,1-.691-.691,1.9,1.9,0,0,1-.251-.96A1.888,1.888,0,0,1-16.1-7.79a1.845,1.845,0,0,1,.691-.682A1.9,1.9,0,0,1-14.45-8.724ZM-1.257,0l-4.2-13.157h1.741L-1.58-6.031q.341,1.149.619,2.163t.655,2.181h.072Q.144-2.854.422-3.868t.619-2.163l2.118-7.126H4.847L.664,0ZM6.659,0V-13.157H8.311V0ZM16.765.233A5.176,5.176,0,0,1,13.848-.6,5.587,5.587,0,0,1,11.865-2.98a8.57,8.57,0,0,1-.718-3.644,8.434,8.434,0,0,1,.718-3.635,5.43,5.43,0,0,1,1.983-2.325,5.3,5.3,0,0,1,2.917-.808,5.26,5.26,0,0,1,2.917.817,5.5,5.5,0,0,1,1.983,2.325,8.373,8.373,0,0,1,.718,3.626,8.57,8.57,0,0,1-.718,3.644A5.587,5.587,0,0,1,19.682-.6,5.176,5.176,0,0,1,16.765.233Zm0-1.454a3.329,3.329,0,0,0,2.064-.664A4.261,4.261,0,0,0,20.194-3.77a7.706,7.706,0,0,0,.485-2.854,7.548,7.548,0,0,0-.485-2.845A4.089,4.089,0,0,0,18.83-11.3a3.425,3.425,0,0,0-2.064-.637,3.436,3.436,0,0,0-2.055.637,4.061,4.061,0,0,0-1.373,1.831,7.548,7.548,0,0,0-.485,2.845,7.706,7.706,0,0,0,.485,2.854A4.23,4.23,0,0,0,14.71-1.885,3.34,3.34,0,0,0,16.765-1.221ZM30.695-14.163h3.77v1.274h-3.77Zm2.944,0H35.11a36.542,36.542,0,0,0,.539,3.868,16.752,16.752,0,0,0,1,3.321,10.185,10.185,0,0,0,1.6,2.63,7.582,7.582,0,0,0,2.307,1.831,1.993,1.993,0,0,0-.359.269q-.2.18-.386.377t-.314.359a8.518,8.518,0,0,1-2.342-1.983A11.018,11.018,0,0,1,35.523-6.22,17.986,17.986,0,0,1,34.5-9.594a36.933,36.933,0,0,1-.574-3.922h-.287ZM33.71-10.7l1.382.215a17.866,17.866,0,0,1-1.912,5.3,11.421,11.421,0,0,1-3.294,3.68,2.685,2.685,0,0,0-.278-.314q-.188-.188-.4-.377t-.377-.314A9.27,9.27,0,0,0,32-5.852,16.031,16.031,0,0,0,33.71-10.7Zm-5.582,2.71v6.354h-1.31v-5.1H24.3V-7.988Zm0,5.762a3.9,3.9,0,0,0,1.8,1.472,7.629,7.629,0,0,0,2.71.539q.736.036,1.786.045T36.627-.18Q37.785-.2,38.862-.233t1.885-.09a2.09,2.09,0,0,0-.18.395q-.09.251-.162.512t-.108.458q-.736.036-1.741.054t-2.082.027q-1.077.009-2.091,0t-1.75-.027A9.047,9.047,0,0,1,29.627.521a5.11,5.11,0,0,1-2.109-1.58Q26.871-.485,26.189.1T24.771,1.292l-.7-1.382q.646-.431,1.391-1t1.445-1.14ZM24.5-13.84l.987-.808a13.123,13.123,0,0,1,1.2.871q.61.494,1.122,1a8.432,8.432,0,0,1,.835.933l-1.077.9a5.778,5.778,0,0,0-.781-.951q-.512-.521-1.113-1.032A14.5,14.5,0,0,0,24.5-13.84ZM46.85-6.821a11.842,11.842,0,0,1-.44,3.276A11.35,11.35,0,0,1,45.162-.7a14.16,14.16,0,0,1-1.885,2.423L42.2,1.167a13.694,13.694,0,0,0,1.777-2.316,10.744,10.744,0,0,0,1.158-2.657,10.962,10.962,0,0,0,.4-3.016,10.934,10.934,0,0,0-.4-3.025A10.943,10.943,0,0,0,43.978-12.5,12.953,12.953,0,0,0,42.2-14.809l1.077-.556a13.433,13.433,0,0,1,1.885,2.414,11.544,11.544,0,0,1,1.248,2.845A11.814,11.814,0,0,1,46.85-6.821Z" transform="translate(46.85 15.365)" fill="#fff"/>
</svg>
