<svg xmlns="http://www.w3.org/2000/svg" width="164.393" height="38.671" viewBox="0 0 164.393 38.671">
  <path id="パス_2" data-name="パス 2" d="M-62.993-32.125a35.207,35.207,0,0,1-3.12,3.958,57.477,57.477,0,0,1-4.126,4.126q-2.262,2.052-4.8,3.937a57.227,57.227,0,0,1-5.173,3.434,15.208,15.208,0,0,0-.9-1.277,7.8,7.8,0,0,0-1.11-1.194A48.314,48.314,0,0,0-75.2-23.874a55.559,55.559,0,0,0,6.094-5.7,36.05,36.05,0,0,0,4.356-5.7h3.183a40.119,40.119,0,0,0,3.77,4.607,55.834,55.834,0,0,0,4.565,4.314,58.859,58.859,0,0,0,4.963,3.77,43.79,43.79,0,0,0,4.963,2.932,11.878,11.878,0,0,0-1.131,1.319,16.228,16.228,0,0,0-.963,1.445Q-47.789-18.3-50.323-20.1T-55.2-23.936q-2.345-2.031-4.356-4.126A38.56,38.56,0,0,1-62.993-32.125ZM-77.15-10.387h28.565v2.806H-77.15Zm1.885-9.34h25.088v2.806H-75.265ZM-80.584-.67h35.727V2.178H-80.584Zm16-17.884h3.267V.921h-3.267Zm33.507-5.864h19.895v2.471H-31.078Zm0,6.324h19.895v2.429H-31.078Zm18.471-12.942h3.225V-1.005a5.753,5.753,0,0,1-.44,2.513,2.709,2.709,0,0,1-1.613,1.3,13.322,13.322,0,0,1-3.267.482q-2.094.1-5.319.063A4.333,4.333,0,0,0-20.272,2.3q-.209-.586-.419-1.194a5.049,5.049,0,0,0-.5-1.068Q-19.518.084-18.01.1t2.639.021h1.592a1.432,1.432,0,0,0,.921-.293,1.226,1.226,0,0,0,.251-.88ZM-39.622-10.764q3.518-.168,8.167-.44t9.926-.607q5.277-.335,10.471-.67L-11.141-9.8q-4.984.419-10.052.817t-9.675.754q-4.607.356-8.251.607ZM-5.445-21.7l2.974,1.466A47.466,47.466,0,0,1-11.937-9.989,63.994,63.994,0,0,1-24.02-2.345,87.722,87.722,0,0,1-37.9,3.016a5.955,5.955,0,0,0-.544-.921q-.377-.544-.775-1.089A5.584,5.584,0,0,0-40,.126,82.035,82.035,0,0,0-26.156-4.838a58.916,58.916,0,0,0,11.811-7.246A41.993,41.993,0,0,0-5.445-21.7Zm-17.3-13.612,3.811.586q-.838,1.633-1.759,3.246a24.005,24.005,0,0,1-1.759,2.7l-2.764-.67q.67-1.257,1.382-2.911A25.8,25.8,0,0,0-22.743-35.308Zm-10.3,4.272H-11.56v2.764H-29.9V-9.549h-3.141Zm38.784-2.6h8.544v2.848H5.738Zm-.126,9.8H13.78v2.89H5.612ZM5.529-13.78H13.78v2.932H5.529ZM4.188-33.633H6.953V-18.6q0,2.429-.126,5.277t-.44,5.78A51.219,51.219,0,0,1,5.445-1.8,26.113,26.113,0,0,1,3.77,3.309a3.619,3.619,0,0,0-.712-.524q-.461-.272-.921-.524A3.267,3.267,0,0,0,1.3,1.927,24.989,24.989,0,0,0,2.89-2.89a43.909,43.909,0,0,0,.859-5.34q.272-2.743.356-5.4T4.188-18.6Zm8.46,0h2.806v33a5.034,5.034,0,0,1-.293,1.885,2.276,2.276,0,0,1-1.047,1.131,5.537,5.537,0,0,1-1.989.482q-1.236.1-3.246.1a5.609,5.609,0,0,0-.188-.942Q8.544,1.508,8.377.963A4.838,4.838,0,0,0,8,.042q1.382.042,2.492.042h1.487a.656.656,0,0,0,.67-.754Zm7.455-.335,2.639-1.089a31.806,31.806,0,0,1,2.2,3.665,19.441,19.441,0,0,1,1.445,3.455l-2.89,1.3a17.856,17.856,0,0,0-1.319-3.539A35.527,35.527,0,0,0,20.1-33.968Zm13.528-1.215,3.225,1.131q-1.089,2.262-2.387,4.67T32.041-25.3L29.4-26.3q.754-1.215,1.529-2.743t1.508-3.141A30.952,30.952,0,0,0,33.633-35.182ZM23.12-14.031h3.141a53.509,53.509,0,0,1-.67,5.529,21.485,21.485,0,0,1-1.424,4.817,14.052,14.052,0,0,1-2.618,4A14.253,14.253,0,0,1,17.34,3.351a6.584,6.584,0,0,0-.88-1.277A12.846,12.846,0,0,0,15.371.921a11.441,11.441,0,0,0,3.77-2.576A11.771,11.771,0,0,0,21.382-5.11,19.28,19.28,0,0,0,22.6-9.277,38.082,38.082,0,0,0,23.12-14.031Zm6.618-.377h3.058V-1.34a1.815,1.815,0,0,0,.188,1.026q.188.23.859.23h2.89a.731.731,0,0,0,.649-.356,3.78,3.78,0,0,0,.335-1.487q.1-1.131.147-3.393a3.94,3.94,0,0,0,.8.5,9.451,9.451,0,0,0,1.026.44,7.6,7.6,0,0,0,.9.272A23.861,23.861,0,0,1,40.1.1a3.677,3.677,0,0,1-1.089,2.073,3.1,3.1,0,0,1-1.989.586H33.339a5.3,5.3,0,0,1-2.22-.377A2.04,2.04,0,0,1,30.031,1.11a8.189,8.189,0,0,1-.293-2.45ZM21.57-24v7.707H34.68V-24Zm-3.058-2.806H37.821v13.361H18.513Zm40.124-2.136h3.225V-3.183a4.545,4.545,0,0,0,.251,1.717,1.424,1.424,0,0,0,1.005.8,8.847,8.847,0,0,0,2.22.209H75.767a3.37,3.37,0,0,0,1.948-.461,2.767,2.767,0,0,0,.921-1.759,29.166,29.166,0,0,0,.44-3.728,7.659,7.659,0,0,0,1.487.8,10.45,10.45,0,0,0,1.613.544,22.08,22.08,0,0,1-.859,4.586A4.112,4.112,0,0,1,79.5,1.927a7.408,7.408,0,0,1-3.6.712H65.213a12.626,12.626,0,0,1-4-.5A3.243,3.243,0,0,1,59.2.356a9.09,9.09,0,0,1-.565-3.581Zm15.12-5.989,2.722,2.513q-2.974,1.131-6.6,2.115t-7.665,1.822q-4.042.838-8.209,1.487T45.863-25.8q-.084-.419-.23-.9T45.3-27.706a4.536,4.536,0,0,0-.4-.859q3.9-.5,7.958-1.173t7.937-1.487q3.874-.817,7.2-1.738A45.006,45.006,0,0,0,73.757-34.931ZM45.695-19.643l32.167-4.44.461,2.932L46.114-16.628Zm-1.3,9.591,36.271-4.691.461,2.932L44.815-7.036Z" transform="translate(82.218 35.308)" fill="#fff"/>
</svg>
